# xmcd
#
# Track frame offsets:
# 150
# 15647
# 30891
# 48147
# 67529
# 81937
# 97918
# 116291
# 132624
# 148001
# 165251
# 183487
#
# Disc length: 2687 seconds
#
#
# Revision: 0
# Processed by: cddbd v1.5PL3 Copyright (c) Steve Scherf et al.
# Submitted via: FreeRIP 2.53 
#
DISCID=870a7d0c
DTITLE=Tritt, Travis - Strong Enough
DYEAR=1900
DGENRE=
TTITLE0=You Can't Count Me Out
TTITLE1=Can't Tell Me Nothin'
TTITLE2=Strong Enough To Be Your Man
TTITLE3=Country Ain't Country
TTITLE4=If You're Gonna Straighten Up (Brother Now's The Time)
TTITLE5=Doesn't Anyone Hurt Anymore
TTITLE6=You Really Wouldn't Want Me That Way
TTITLE7=I Don't Ever Want Her To Feel That Way Again
TTITLE8=Time To Get Crazy
TTITLE9=Now I've Seen It All
TTITLE10=God Must Be A Woman
TTITLE11=I Can't Seem To Get Over You
EXTD=
EXTT0=
EXTT1=
EXTT2=
EXTT3=
EXTT4=
EXTT5=
EXTT6=
EXTT7=
EXTT8=
EXTT9=
EXTT10=
EXTT11=
PLAYORDER=
